<svg width="80" height="80" viewBox="0 0 80 80" fill="none" xmlns="http://www.w3.org/2000/svg">
<rect width="80" height="80" rx="23.3333" fill="#F0EBE3"/>
<path d="M48.5061 56.6564V59.8387L37.595 60.8543L31.1569 57.4689V60.7189L20.1103 61.6668L13.3333 58.2814V21.1095L23.7021 20.2293L25.5319 21.8543C26.2548 21.1772 27.1358 20.613 28.175 20.1616C29.2141 19.6651 30.2758 19.3717 31.3602 19.2814C31.5409 19.2814 31.699 19.2814 31.8346 19.2814C32.0153 19.2363 32.196 19.2137 32.3767 19.2137C34.2291 19.2137 35.946 19.6425 37.5273 20.5002C39.1538 21.3578 40.3962 22.3283 41.2546 23.4116C41.8872 22.238 42.8359 21.1547 44.101 20.1616C45.366 19.1234 46.9022 18.5366 48.7094 18.4012C48.9353 18.4012 49.1612 18.4012 49.3871 18.4012C49.6582 18.3561 49.9292 18.3335 50.2003 18.3335C52.9563 18.3335 55.5316 18.8526 57.9261 19.8908C60.3207 20.929 62.2409 22.4411 63.6866 24.4272C65.1776 26.3682 65.923 28.738 65.923 31.5366V59.0939L54.8765 59.9741L48.5061 56.6564ZM58.4683 28.1512C58.4683 25.0366 57.6551 22.7345 56.0286 21.245C54.4021 19.7554 52.369 19.0106 49.9292 19.0106C49.7485 19.0106 49.5678 19.0331 49.3871 19.0783C49.2064 19.0783 49.003 19.0783 48.7771 19.0783C47.3314 19.2137 46.0437 19.6651 44.9142 20.4325C43.8299 21.1998 42.9489 22.1252 42.2712 23.2085C41.5935 24.2918 41.1191 25.3977 40.848 26.5262L40.6447 26.4585C40.2833 24.8335 39.4248 23.3439 38.0694 21.9897C36.7592 20.5904 34.8842 19.8908 32.4445 19.8908C32.2638 19.8908 32.083 19.9134 31.9023 19.9585C31.7668 19.9585 31.6087 19.9585 31.4279 19.9585C29.2141 20.1391 27.3843 20.9967 25.9385 22.5314C24.4928 24.0661 23.5892 25.804 23.2277 27.745L23.0244 27.8127V20.9741L14.011 21.7189V57.5366L23.7021 56.7918V34.6512C23.928 33.5227 24.3798 32.5071 25.0575 31.6043C25.7804 30.7016 26.7518 30.205 27.9716 30.1147H28.446C29.3948 30.1147 30.1403 30.4533 30.6825 31.1304C31.2246 31.7623 31.4957 32.8231 31.4957 34.3127V56.7918L41.0513 55.9116V33.771C41.2772 32.6877 41.729 31.6946 42.4067 30.7918C43.1296 29.8891 44.0784 29.3925 45.2531 29.3022H45.7275C46.7214 29.3022 47.4669 29.6182 47.9639 30.2502C48.5061 30.8821 48.7771 31.9429 48.7771 33.4325V55.9116L58.4683 55.0991V28.1512Z" fill="#232B34"/>
</svg>
