<svg width="122" height="51" viewBox="0 0 122 51" fill="none" xmlns="http://www.w3.org/2000/svg">
<path d="M3.14472 30.8673C1.99014 30.8673 1.16978 30.2734 0.683635 29.0856C0.227878 27.8978 0 25.9974 0 23.3843C0 19.524 0.5621 15.8568 1.6863 12.3825C1.95975 11.5214 2.40032 10.8978 3.00799 10.5118C3.64605 10.0961 4.52718 9.88821 5.65138 9.88821C6.25906 9.88821 6.68443 9.96245 6.9275 10.1109C7.17057 10.2594 7.29211 10.5415 7.29211 10.9572C7.29211 11.4323 7.06423 12.5013 6.60847 14.1642C6.30463 15.352 6.06156 16.3913 5.87926 17.2821C5.69696 18.1432 5.54504 19.2271 5.4235 20.5336C6.24387 18.2175 7.21615 16.2576 8.34035 14.6541C9.49493 13.0507 10.6647 11.8629 11.8497 11.0908C13.065 10.2891 14.2044 9.88821 15.2678 9.88821C16.3313 9.88821 17.0757 10.1258 17.5011 10.6009C17.9568 11.076 18.1847 11.8035 18.1847 12.7834C18.1847 13.7336 17.896 15.4559 17.3188 17.9502C17.0757 19.0192 16.9086 19.821 16.8174 20.3555C18.3366 16.7031 20.0229 14.0454 21.8763 12.3825C23.7297 10.7197 25.4616 9.88821 27.0719 9.88821C29.0469 9.88821 30.0344 10.8533 30.0344 12.7834C30.0344 13.9415 29.7001 16.0349 29.0317 19.0638C28.4544 21.6472 28.1658 23.3546 28.1658 24.186C28.1658 25.3738 28.6063 25.9677 29.4875 25.9677C30.0951 25.9677 30.8091 25.6114 31.6295 24.8987C32.4803 24.1563 33.6045 22.9686 35.0021 21.3354C35.3667 20.9197 35.7769 20.7118 36.2327 20.7118C36.6276 20.7118 36.9315 20.89 37.1442 21.2463C37.3872 21.6026 37.5088 22.0926 37.5088 22.7162C37.5088 23.9039 37.2201 24.8245 36.6428 25.4777C35.3363 27.0515 33.9235 28.3432 32.4043 29.3528C30.9155 30.3624 29.214 30.8673 27.2998 30.8673C25.7503 30.8673 24.5805 30.4367 23.7905 29.5755C23.0005 28.6847 22.6055 27.4079 22.6055 25.745C22.6055 24.9135 22.8182 23.4288 23.2436 21.2908C23.6386 19.4201 23.8361 18.1284 23.8361 17.4157C23.8361 16.9406 23.669 16.7031 23.3347 16.7031C22.9398 16.7031 22.3777 17.2079 21.6484 18.2175C20.9192 19.1974 20.19 20.5039 19.4608 22.1371C18.7316 23.7703 18.1391 25.4926 17.6834 27.3039C17.3491 28.7293 16.9541 29.6795 16.4984 30.1546C16.073 30.6297 15.3742 30.8673 14.4019 30.8673C13.3992 30.8673 12.6397 30.407 12.1231 29.4865C11.637 28.5362 11.3939 27.393 11.3939 26.0568C11.3939 24.9284 11.5458 23.2952 11.8497 21.1572C12.0927 19.2568 12.2143 18.0096 12.2143 17.4157C12.2143 16.9406 12.0472 16.7031 11.7129 16.7031C11.2572 16.7031 10.6799 17.2376 9.98107 18.3066C9.28224 19.3755 8.59861 20.7415 7.93017 22.4044C7.29211 24.0672 6.77558 25.7004 6.38059 27.3039C6.04637 28.6996 5.65138 29.6498 5.19563 30.1546C4.77025 30.6297 4.08662 30.8673 3.14472 30.8673Z" fill="url(#paint0_linear_21_778)"/>
<path d="M39.4294 30.8673C37.5456 30.8673 36.0416 30.1991 34.9174 28.8629C33.7932 27.5266 33.2311 25.7747 33.2311 23.607C33.2311 21.2314 33.7932 18.9895 34.9174 16.8812C36.0416 14.7432 37.5304 13.0358 39.3838 11.759C41.2676 10.4524 43.2577 9.79913 45.3542 9.79913C46.0226 9.79913 46.4632 9.93275 46.6759 10.2C46.919 10.4376 47.1165 10.883 47.2684 11.5362C47.9064 11.4175 48.5749 11.3581 49.2737 11.3581C50.7625 11.3581 51.5069 11.8777 51.5069 12.917C51.5069 13.5406 51.279 15.0253 50.8233 17.3712C50.1244 20.786 49.775 23.1616 49.775 24.4978C49.775 24.9432 49.8814 25.2996 50.0941 25.5668C50.3371 25.8341 50.641 25.9677 51.0056 25.9677C51.5829 25.9677 52.2817 25.6114 53.1021 24.8987C53.9224 24.1563 55.0314 22.9686 56.4291 21.3354C56.7937 20.9197 57.2039 20.7118 57.6596 20.7118C58.0546 20.7118 58.3585 20.89 58.5711 21.2463C58.8142 21.6026 58.9357 22.0926 58.9357 22.7162C58.9357 23.9039 58.6471 24.8245 58.0698 25.4777C56.8241 26.9921 55.5024 28.269 54.1047 29.3083C52.7071 30.3476 51.355 30.8673 50.0485 30.8673C49.0458 30.8673 48.1191 30.5406 47.2684 29.8873C46.448 29.2044 45.8251 28.2838 45.3998 27.1258C43.8198 29.6201 41.8297 30.8673 39.4294 30.8673ZM41.0701 26.3686C41.7385 26.3686 42.3766 25.9825 42.9843 25.2105C43.5919 24.4384 44.0325 23.414 44.306 22.1371L45.9923 13.9415C44.7161 13.9712 43.5312 14.4463 42.4374 15.3668C41.3739 16.2576 40.5232 17.4454 39.8851 18.9301C39.2471 20.4148 38.928 21.9886 38.928 23.6515C38.928 24.5721 39.1103 25.255 39.4749 25.7004C39.8699 26.1459 40.4016 26.3686 41.0701 26.3686Z" fill="url(#paint1_linear_21_778)"/>
<path d="M73.2796 17.0594C73.2796 19.4052 72.7175 21.6323 71.5933 23.7406C70.4995 25.8192 69.0259 27.5118 67.1725 28.8183C65.3494 30.1249 63.3897 30.8079 61.2932 30.8673C60.8982 36.5983 60.0019 41.379 58.6042 45.2096C57.2066 49.0699 55.1557 51 52.4515 51C50.8108 51 49.5955 50.421 48.8055 49.2629C48.0155 48.1048 47.6205 46.5013 47.6205 44.4524C47.6205 41.5424 48.3041 38.1424 49.6714 34.2524C51.0387 30.3921 53.1504 26.131 56.0064 21.469C56.0064 17.1336 55.9761 14.1197 55.9153 12.4271C55.8849 11.5659 56.2343 10.883 56.9635 10.3782C57.6927 9.87336 58.6043 9.62096 59.6981 9.62096C60.3361 9.62096 60.7919 9.75458 61.0653 10.0218C61.3692 10.2594 61.5363 10.7493 61.5667 11.4917C61.5667 12.2341 61.5819 12.7834 61.6122 13.1397C62.5845 11.952 63.5416 11.1057 64.4835 10.6009C65.4254 10.0664 66.4281 9.79913 67.4915 9.79913C69.193 9.79913 70.5755 10.4672 71.6389 11.8035C72.7327 13.1397 73.2796 14.8917 73.2796 17.0594ZM61.5211 26.5913C62.6149 26.3537 63.6176 25.7747 64.5291 24.8541C65.471 23.9039 66.2154 22.7459 66.7623 21.3799C67.3092 19.9843 67.5827 18.5293 67.5827 17.0148C67.5827 16.124 67.4004 15.4559 67.0358 15.0105C66.6711 14.5354 66.185 14.2978 65.5773 14.2978C64.4835 14.2978 63.1618 15.4262 61.6122 17.683C61.5819 18.9895 61.5667 20.9048 61.5667 23.4288C61.5667 24.7948 61.5515 25.8489 61.5211 26.5913ZM52.8161 46.6349C53.6365 46.6349 54.3201 44.883 54.867 41.379C55.414 37.9048 55.7634 33.5694 55.9153 28.3729C54.6088 31.3424 53.5757 34.1782 52.8161 36.8803C52.0565 39.5825 51.6768 41.8541 51.6768 43.6952C51.6768 44.6454 51.7983 45.3729 52.0414 45.8777C52.254 46.3825 52.5123 46.6349 52.8161 46.6349Z" fill="url(#paint2_linear_21_778)"/>
<path d="M84.3157 31.8472C82.7357 31.8472 81.5204 31.4908 80.6696 30.7782C79.8493 30.0655 79.4391 29.2638 79.4391 28.3729C79.4391 27.6009 79.7277 26.9328 80.305 26.3686C80.8823 25.8044 81.7331 25.5223 82.8573 25.5223C83.2523 25.5223 83.708 25.5668 84.2245 25.6559C84.7714 25.7153 85.1816 25.7598 85.4551 25.7895C85.4247 25.0175 85.2424 24.29 84.9082 23.607C84.6043 22.924 84.2094 22.2707 83.7232 21.6472C83.2371 20.9939 82.7813 20.4297 82.3559 19.9546C81.414 21.7065 80.4721 23.1616 79.5302 24.3197C78.6187 25.4777 77.6161 26.5764 76.5223 27.6157C75.9753 28.1502 75.398 28.4175 74.7904 28.4175C74.3042 28.4175 73.9092 28.2542 73.6054 27.9275C73.3016 27.5712 73.1497 27.1406 73.1497 26.6358C73.1497 26.0419 73.3623 25.4926 73.7877 24.9878L74.3802 24.2751C76.0513 22.2559 77.3122 20.593 78.163 19.2865C78.6795 18.4253 79.2872 17.2821 79.986 15.8568C80.6848 14.4017 81.3685 12.9022 82.0369 11.3581C82.6142 10.0515 83.8144 9.39825 85.6374 9.39825C86.4881 9.39825 87.0806 9.47249 87.4148 9.62096C87.7491 9.76943 87.9162 10.007 87.9162 10.3336C87.9162 10.5118 87.8554 10.7939 87.7339 11.1799C87.6123 11.5659 87.4452 11.952 87.2325 12.338C86.6856 13.407 86.4122 14.3127 86.4122 15.055C86.4122 15.5004 86.5641 15.9904 86.8679 16.5249C87.2021 17.0594 87.7035 17.7275 88.3719 18.5293C89.3442 19.7764 90.0734 20.8454 90.5596 21.7362C91.0761 22.5974 91.3343 23.5476 91.3343 24.5869C91.3343 24.8838 91.304 25.2996 91.2432 25.8341C92.732 25.2699 94.4791 23.7703 96.4844 21.3354C96.849 20.9197 97.2592 20.7118 97.7149 20.7118C98.1099 20.7118 98.4138 20.89 98.6264 21.2463C98.8695 21.6026 98.9911 22.0926 98.9911 22.7162C98.9911 23.8445 98.7024 24.7651 98.1251 25.4777C96.6059 27.3188 95.1475 28.5808 93.7499 29.2638C92.3826 29.917 90.6811 30.2734 88.6454 30.3328C87.43 31.3424 85.9868 31.8472 84.3157 31.8472Z" fill="url(#paint3_linear_21_778)"/>
<path d="M101.259 6.94847C99.9827 6.94847 99.0256 6.66638 98.3875 6.10218C97.7495 5.5083 97.4304 4.6917 97.4304 3.6524C97.4304 2.6131 97.8406 1.75196 98.661 1.069C99.5117 0.356332 100.56 0 101.806 0C102.93 0 103.841 0.267249 104.54 0.801747C105.239 1.33624 105.588 2.09345 105.588 3.07336C105.588 4.26113 105.193 5.21135 104.404 5.92402C103.614 6.60699 102.565 6.94847 101.259 6.94847ZM100.894 30.8673C98.9192 30.8673 97.476 30.1843 96.5645 28.8183C95.6834 27.4524 95.2428 25.641 95.2428 23.3843C95.2428 22.048 95.4099 20.3406 95.7441 18.262C96.1087 16.1537 96.5645 14.1939 97.1114 12.3825C97.3849 11.4323 97.7495 10.779 98.2052 10.4227C98.661 10.0664 99.3902 9.88821 100.393 9.88821C101.942 9.88821 102.717 10.393 102.717 11.4026C102.717 12.145 102.429 13.8672 101.851 16.5694C101.122 19.8358 100.757 22.048 100.757 23.2061C100.757 24.0969 100.879 24.7799 101.122 25.255C101.365 25.7301 101.775 25.9677 102.353 25.9677C102.9 25.9677 103.583 25.5965 104.404 24.8541C105.224 24.1118 106.318 22.9389 107.685 21.3354C108.05 20.9197 108.46 20.7118 108.916 20.7118C109.311 20.7118 109.614 20.89 109.827 21.2463C110.07 21.6026 110.192 22.0926 110.192 22.7162C110.192 23.9039 109.903 24.8245 109.326 25.4777C106.318 29.0707 103.507 30.8673 100.894 30.8673Z" fill="url(#paint4_linear_21_778)"/>
<path d="M114.981 31.8472C113.401 31.8472 112.186 31.4908 111.335 30.7782C110.515 30.0655 110.105 29.2638 110.105 28.3729C110.105 27.6009 110.393 26.9328 110.971 26.3686C111.548 25.8044 112.399 25.5223 113.523 25.5223C113.918 25.5223 114.374 25.5668 114.89 25.6559C115.437 25.7153 115.847 25.7598 116.121 25.7895C116.09 25.0175 115.908 24.29 115.574 23.607C115.27 22.924 114.875 22.2707 114.389 21.6472C113.903 20.9939 113.447 20.4297 113.022 19.9546C112.08 21.7065 111.138 23.1616 110.196 24.3197C109.284 25.4777 108.282 26.5764 107.188 27.6157C106.641 28.1502 106.064 28.4175 105.456 28.4175C104.97 28.4175 104.575 28.2542 104.271 27.9275C103.967 27.5712 103.815 27.1406 103.815 26.6358C103.815 26.0419 104.028 25.4926 104.453 24.9878L105.046 24.2751C106.717 22.2559 107.978 20.593 108.829 19.2865C109.376 18.4253 109.922 17.4009 110.469 16.2131C111.047 15.0253 111.791 13.407 112.703 11.3581C113.28 10.0515 114.48 9.39825 116.303 9.39825C117.154 9.39825 117.746 9.47249 118.08 9.62096C118.415 9.76943 118.582 10.007 118.582 10.3336C118.582 10.5118 118.521 10.7939 118.4 11.1799C118.278 11.5659 118.111 11.952 117.898 12.338C117.351 13.407 117.078 14.3127 117.078 15.055C117.078 15.5004 117.23 15.9904 117.534 16.5249C117.868 17.0594 118.369 17.7275 119.038 18.5293C120.01 19.7764 120.739 20.8454 121.225 21.7362C121.742 22.5974 122 23.5476 122 24.5869C122 25.8341 121.696 27.0218 121.088 28.1502C120.511 29.2489 119.691 30.1397 118.627 30.8227C117.564 31.5057 116.349 31.8472 114.981 31.8472Z" fill="url(#paint5_linear_21_778)"/>
<defs>
<linearGradient id="paint0_linear_21_778" x1="17.1151" y1="-16.74" x2="81.4878" y2="51.5489" gradientUnits="userSpaceOnUse">
<stop stop-color="#FF5F6D"/>
<stop offset="1" stop-color="#FFC371"/>
</linearGradient>
<linearGradient id="paint1_linear_21_778" x1="17.1151" y1="-16.74" x2="81.4878" y2="51.5489" gradientUnits="userSpaceOnUse">
<stop stop-color="#FF5F6D"/>
<stop offset="1" stop-color="#FFC371"/>
</linearGradient>
<linearGradient id="paint2_linear_21_778" x1="17.1151" y1="-16.74" x2="81.4878" y2="51.5489" gradientUnits="userSpaceOnUse">
<stop stop-color="#FF5F6D"/>
<stop offset="1" stop-color="#FFC371"/>
</linearGradient>
<linearGradient id="paint3_linear_21_778" x1="17.1151" y1="-16.74" x2="81.4878" y2="51.5489" gradientUnits="userSpaceOnUse">
<stop stop-color="#FF5F6D"/>
<stop offset="1" stop-color="#FFC371"/>
</linearGradient>
<linearGradient id="paint4_linear_21_778" x1="17.1151" y1="-16.74" x2="81.4878" y2="51.5489" gradientUnits="userSpaceOnUse">
<stop stop-color="#FF5F6D"/>
<stop offset="1" stop-color="#FFC371"/>
</linearGradient>
<linearGradient id="paint5_linear_21_778" x1="17.1151" y1="-16.74" x2="81.4878" y2="51.5489" gradientUnits="userSpaceOnUse">
<stop stop-color="#FF5F6D"/>
<stop offset="1" stop-color="#FFC371"/>
</linearGradient>
</defs>
</svg>
