<svg width="24" height="24" viewBox="0 0 24 24" fill="none" xmlns="http://www.w3.org/2000/svg">
<path d="M16.42 7.95012C18.86 10.3901 18.86 14.3501 16.42 16.7901C13.98 19.2301 10.02 19.2301 7.58 16.7901C5.14 14.3501 5.14 10.3901 7.58 7.95012C10.02 5.51012 13.98 5.51012 16.42 7.95012Z" fill="url(#paint0_linear_113_1698)"/>
<path d="M8.25003 22.3899C8.16003 22.3899 8.06004 22.3699 7.97004 22.3399C5.72004 21.4399 3.90003 19.8499 2.68003 17.7499C1.50003 15.6999 1.03003 13.3799 1.34003 11.0199C1.39003 10.6099 1.78003 10.3199 2.18003 10.3699C2.59003 10.4199 2.88002 10.7999 2.83002 11.2099C2.57002 13.2299 2.97005 15.2299 3.98005 16.9899C5.02005 18.7899 6.59002 20.1599 8.52002 20.9299C8.90002 21.0899 9.09004 21.5198 8.94004 21.9098C8.83004 22.2098 8.54003 22.3899 8.25003 22.3899Z" fill="url(#paint1_linear_113_1698)"/>
<path d="M5.84998 5.22986C5.62998 5.22986 5.40998 5.12988 5.25998 4.93988C4.99998 4.60988 5.05999 4.13989 5.38999 3.88989C7.29999 2.39989 9.57997 1.60986 12 1.60986C14.36 1.60986 16.61 2.36988 18.5 3.80988C18.83 4.05988 18.89 4.52986 18.64 4.85986C18.39 5.18986 17.92 5.24988 17.59 4.99988C15.97 3.75988 14.04 3.10986 12 3.10986C9.91997 3.10986 7.94997 3.78989 6.30997 5.06989C6.16997 5.17989 6.00998 5.22986 5.84998 5.22986Z" fill="url(#paint2_linear_113_1698)"/>
<path d="M15.75 22.3901C15.45 22.3901 15.17 22.2101 15.05 21.9201C14.9 21.5401 15.08 21.1001 15.47 20.9401C17.4 20.1601 18.97 18.8001 20.01 17.0001C21.03 15.2401 21.43 13.2401 21.16 11.2201C21.11 10.8101 21.4 10.4301 21.81 10.3801C22.21 10.3301 22.6 10.6201 22.65 11.0301C22.95 13.3801 22.49 15.7101 21.31 17.7601C20.1 19.8601 18.27 21.4401 16.02 22.3501C15.94 22.3701 15.85 22.3901 15.75 22.3901Z" fill="url(#paint3_linear_113_1698)"/>
<defs>
<linearGradient id="paint0_linear_113_1698" x1="3.98718" y1="12.3701" x2="19.1166" y2="13.3932" gradientUnits="userSpaceOnUse">
<stop stop-color="#FF5F6D"/>
<stop offset="1" stop-color="#FFC371"/>
</linearGradient>
<linearGradient id="paint1_linear_113_1698" x1="0.15492" y1="16.3771" x2="9.55333" y2="16.7863" gradientUnits="userSpaceOnUse">
<stop stop-color="#FF5F6D"/>
<stop offset="1" stop-color="#FFC371"/>
</linearGradient>
<linearGradient id="paint2_linear_113_1698" x1="3.16655" y1="3.41986" x2="18.7962" y2="7.41852" gradientUnits="userSpaceOnUse">
<stop stop-color="#FF5F6D"/>
<stop offset="1" stop-color="#FFC371"/>
</linearGradient>
<linearGradient id="paint3_linear_113_1698" x1="13.9055" y1="16.3823" x2="23.3008" y2="16.7917" gradientUnits="userSpaceOnUse">
<stop stop-color="#FF5F6D"/>
<stop offset="1" stop-color="#FFC371"/>
</linearGradient>
</defs>
</svg>
