<svg width="24" height="24" viewBox="0 0 24 24" fill="none" xmlns="http://www.w3.org/2000/svg">
<path d="M8.55998 3.34009V17.6701C8.21998 17.6801 7.87998 17.7601 7.62998 17.9101L5.27998 19.2501C3.63998 20.1901 2.28998 19.4101 2.28998 17.5101V7.78009C2.28998 7.15009 2.73998 6.37009 3.29998 6.05009L7.62998 3.57009C7.87998 3.43009 8.21998 3.35009 8.55998 3.34009Z" fill="#292D32"/>
<path d="M8.55998 3.34009V17.6701C8.21998 17.6801 7.87998 17.7601 7.62998 17.9101L5.27998 19.2501C3.63998 20.1901 2.28998 19.4101 2.28998 17.5101V7.78009C2.28998 7.15009 2.73998 6.37009 3.29998 6.05009L7.62998 3.57009C7.87998 3.43009 8.21998 3.35009 8.55998 3.34009Z" fill="url(#paint0_linear_157_249)"/>
<path d="M15.73 6.32994V20.6599C15.38 20.6699 15.04 20.6099 14.77 20.4799L9.52 17.8499C9.25 17.7199 8.91 17.6599 8.56 17.6699V3.33994C8.91 3.32994 9.25 3.38994 9.52 3.51994L14.77 6.14994C15.04 6.27994 15.38 6.33994 15.73 6.32994Z" fill="url(#paint1_linear_157_249)"/>
<path d="M22 6.49006V16.2201C22 16.8501 21.55 17.6301 20.99 17.9501L16.66 20.4301C16.41 20.5701 16.07 20.6501 15.73 20.6601V6.33006C16.07 6.32006 16.41 6.24006 16.66 6.09006L19.01 4.75006C20.65 3.81006 22 4.59006 22 6.49006Z" fill="#292D32"/>
<path d="M22 6.49006V16.2201C22 16.8501 21.55 17.6301 20.99 17.9501L16.66 20.4301C16.41 20.5701 16.07 20.6501 15.73 20.6601V6.33006C16.07 6.32006 16.41 6.24006 16.66 6.09006L19.01 4.75006C20.65 3.81006 22 4.59006 22 6.49006Z" fill="url(#paint2_linear_157_249)"/>
<defs>
<linearGradient id="paint0_linear_157_249" x1="5.42498" y1="3.34009" x2="5.42498" y2="19.6486" gradientUnits="userSpaceOnUse">
<stop stop-color="#B84B98"/>
<stop offset="1" stop-color="#6649D5"/>
</linearGradient>
<linearGradient id="paint1_linear_157_249" x1="12.145" y1="3.33887" x2="12.145" y2="20.661" gradientUnits="userSpaceOnUse">
<stop stop-color="#B84B98"/>
<stop offset="1" stop-color="#B149D5"/>
</linearGradient>
<linearGradient id="paint2_linear_157_249" x1="18.865" y1="4.35156" x2="18.865" y2="20.6601" gradientUnits="userSpaceOnUse">
<stop stop-color="#B84B98"/>
<stop offset="1" stop-color="#6649D5"/>
</linearGradient>
</defs>
</svg>
