<svg width="24" height="24" viewBox="0 0 24 24" fill="none" xmlns="http://www.w3.org/2000/svg">
<path d="M15.84 9.70259C15.4463 10.0727 12.5696 12.9515 12.2318 14.8967C11.894 12.9538 9.01738 10.0728 8.62363 9.70495C8.99586 6.94231 10.3083 4.4786 12.2318 2.64757C14.1532 4.4764 15.4678 6.93991 15.84 9.70259Z" fill="#CDCAD3"/>
<path d="M15.6874 9.54994C15.2248 9.98457 14.7945 10.4579 14.3792 10.9377C13.7122 11.708 13.0711 12.5213 12.5784 13.4163C12.3331 13.8596 12.1137 14.3372 12.0254 14.8385H12.4407C12.3611 14.3953 12.1803 13.9736 11.9738 13.5777C11.7414 13.1301 11.4639 12.7063 11.1669 12.2953C10.614 11.5315 10.0008 10.8107 9.35101 10.1287C9.16382 9.93289 8.97448 9.73709 8.77868 9.5499C8.79805 9.61875 8.81526 9.68976 8.83463 9.75861C9.11433 7.69525 9.93624 5.71373 11.225 4.0743C11.5822 3.62032 11.9695 3.19431 12.3869 2.79628H12.0835C13.5745 4.22062 14.6848 6.02364 15.2635 8.00532C15.4314 8.57981 15.554 9.16504 15.6358 9.75884C15.6508 9.87503 15.7993 9.93743 15.9004 9.90945C16.0252 9.87503 16.0661 9.761 16.051 9.64481C15.7606 7.5126 14.8935 5.49016 13.5702 3.79683C13.2088 3.33424 12.8129 2.89749 12.3869 2.49296C12.3008 2.4112 12.1674 2.4112 12.0835 2.49296C11.2444 3.29548 10.515 4.21639 9.93406 5.22117C9.34455 6.24103 8.90131 7.35126 8.63019 8.5002C8.56134 8.79281 8.50325 9.08542 8.45807 9.38235C8.4344 9.53511 8.3634 9.73736 8.48173 9.86214C8.50325 9.88581 8.52907 9.90732 8.55058 9.92884C8.72917 10.1031 8.90344 10.2817 9.07558 10.4624C9.65436 11.0734 10.2073 11.7125 10.7065 12.3902C11.2207 13.0873 11.7371 13.8554 11.9651 14.6817C11.991 14.772 12.0103 14.8624 12.0275 14.9549C12.0641 15.1593 12.4062 15.1615 12.4428 14.9549C12.5203 14.5267 12.6816 14.1502 12.8796 13.7737C13.112 13.3305 13.3895 12.9088 13.6821 12.5043C14.2136 11.7684 14.8117 11.0799 15.4356 10.4215C15.6185 10.23 15.8036 10.0385 15.9951 9.85563C16.193 9.66414 15.8896 9.36077 15.6874 9.55011L15.6874 9.54994Z" fill="#CDCAD3"/>
<path d="M19.4525 17.524C17.6086 19.8004 15.0052 21.0978 12.3027 21.3495C12.2833 21.3516 12.2661 21.3538 12.2467 21.3538C12.2424 21.3538 12.2381 21.3538 12.2317 21.3559C12.2274 21.3559 12.2231 21.3559 12.2166 21.3538C12.1973 21.3516 12.18 21.3495 12.1607 21.3495C9.45827 21.0978 6.85485 19.7982 5.01083 17.524C3.13464 15.2089 2.41174 12.3366 2.76457 9.59988C5.0689 9.78492 7.31068 10.7295 9.07955 12.3926C9.42165 12.7154 9.7487 13.0639 10.0521 13.4383C11.2139 14.8712 11.9347 16.5193 12.2295 18.2169C12.5243 16.5193 13.245 14.8712 14.4069 13.4383C14.7124 13.0618 15.0373 12.7132 15.3794 12.3905C17.148 10.7294 19.3901 9.78275 21.6944 9.59984C22.0516 12.3366 21.3287 15.209 19.4525 17.524Z" fill="#171C22"/>
<path d="M19.2999 17.3713C18.2714 18.6365 16.9654 19.6456 15.4744 20.3082C14.7665 20.6224 14.0178 20.8526 13.2561 20.9989C13.0689 21.0355 12.8817 21.0656 12.6945 21.0914C12.5203 21.1151 12.3352 21.1517 12.161 21.1366C11.7801 21.1022 11.4036 21.0419 11.0292 20.9645C9.49082 20.6396 8.02348 19.9662 6.79274 18.9872C5.46522 17.9329 4.40878 16.5602 3.73105 15.0068C3.07481 13.5007 2.80374 11.8354 2.91992 10.2003C2.93498 10.0002 2.95434 9.80006 2.98016 9.59996L2.765 9.81512C4.45613 9.95283 6.10209 10.5165 7.52631 11.4417C9.05177 12.4358 10.2954 13.8429 11.1087 15.4717C11.5498 16.356 11.8532 17.3026 12.0253 18.2752C12.0619 18.4796 12.404 18.4817 12.4406 18.2752C12.7504 16.5109 13.5164 14.8413 14.6653 13.4663C15.7992 12.1086 17.2752 11.05 18.936 10.4325C19.8246 10.1012 20.7563 9.89247 21.7008 9.81505C21.6298 9.74404 21.5566 9.67089 21.4856 9.59989C21.7567 11.73 21.3694 13.9182 20.3431 15.8094C20.0419 16.3602 19.6933 16.8852 19.2996 17.3715C19.2265 17.4618 19.2114 17.5866 19.2996 17.6748C19.3749 17.7501 19.5298 17.7652 19.603 17.6748C21.0381 15.8976 21.8837 13.7075 21.9891 11.4244C22.017 10.8155 21.9912 10.2044 21.9138 9.59768C21.9009 9.4901 21.8256 9.37176 21.6986 9.38252C19.9322 9.52668 18.2087 10.099 16.7197 11.0672C15.134 12.1 13.828 13.5587 12.9824 15.2521C12.5242 16.1687 12.2014 17.1498 12.0228 18.1589H12.4381C12.1153 16.3193 11.2999 14.5916 10.1015 13.1608C8.91809 11.745 7.36895 10.6585 5.64111 10.0152C4.71592 9.6709 3.74556 9.46219 2.76229 9.3826C2.63535 9.37184 2.56004 9.49018 2.54713 9.59776C2.33197 11.2889 2.52346 13.0295 3.11729 14.6282C3.72621 16.272 4.73957 17.7609 6.05206 18.9249C7.29137 20.0222 8.7824 20.8247 10.3834 21.2507C10.7663 21.3518 11.1536 21.4314 11.5474 21.4895C11.7561 21.5197 11.9648 21.5455 12.1756 21.5648C12.3542 21.582 12.55 21.539 12.7264 21.5154C13.5333 21.4078 14.3251 21.2141 15.0867 20.9258C16.6466 20.3363 18.0624 19.3874 19.1875 18.1546C19.3316 17.9975 19.4693 17.8361 19.6027 17.6726C19.6759 17.5823 19.6909 17.4575 19.6027 17.3692C19.5274 17.2961 19.3725 17.281 19.2994 17.3714L19.2999 17.3713Z" fill="#171C22"/>
</svg>
