<svg width="24" height="24" viewBox="0 0 24 24" fill="none" xmlns="http://www.w3.org/2000/svg">
<path d="M22 20.0651C22 24.4 17.9706 23.9896 13 23.9896C8.02944 23.9896 4 24.4 4 20.0651C4 15.7302 8.02944 14 13 14C17.9706 14 22 15.7302 22 20.0651Z" fill="#CDCAD3"/>
<path d="M19.9507 5.24961C18.2895 3.38837 15.7477 2.66786 13.8063 3.18815C14.1065 2.60781 14.5069 2.04728 15.0072 1.52698C15.2274 1.30682 15.0272 0.946641 14.7271 1.00665C13.146 1.3068 11.765 2.22737 11.0044 3.46835C9.52334 2.84795 7.60206 2.82783 5.90082 3.58842C5.60066 3.70848 5.68066 4.14881 6.00092 4.18888C6.82153 4.24891 7.62203 4.4491 8.34257 4.74927C6.42114 5.36967 4.65997 7.43113 4.31973 9.93294C4.27966 10.2331 4.63999 10.4133 4.86015 10.1932C5.90092 9.13241 7.14176 8.21173 8.30258 7.77138C7.10166 9.15239 6.90163 11.3339 7.68218 13.2352C7.80224 13.5154 8.22259 13.4754 8.28264 13.1752C8.78299 10.7735 9.98391 9.25244 11.5049 8.9122C13.2662 13.5555 12.3255 17.6384 11.8051 19.2595C11.685 19.6197 11.9652 20 12.3455 20H14.9474C15.2475 20 15.5078 19.7599 15.5078 19.4396C15.5277 17.8384 15.4077 13.0551 13.3061 8.29172C14.9272 7.89148 16.7085 8.53185 18.2496 10.3932C18.4498 10.6334 18.83 10.4533 18.79 10.1531C18.5699 7.97161 17.289 6.15029 15.6278 5.54986C16.6686 5.36977 18.0295 5.46987 19.6707 5.77003C19.9507 5.8302 20.1509 5.48997 19.9507 5.24984L19.9507 5.24961Z" fill="#171C22"/>
</svg>
