<svg width="24" height="24" viewBox="0 0 24 24" fill="none" xmlns="http://www.w3.org/2000/svg">
<g clip-path="url(#clip0_945_9364)">
<path d="M21.37 11.3904V17.3804C21.37 20.1404 19.13 22.3804 16.37 22.3804H7.63C4.87 22.3804 2.63 20.1404 2.63 17.3804V11.4604C3.39 12.2804 4.47 12.7504 5.64 12.7504C6.9 12.7504 8.11 12.1204 8.87 11.1104C9.55 12.1204 10.71 12.7504 12 12.7504C13.28 12.7504 14.42 12.1504 15.11 11.1504C15.88 12.1404 17.07 12.7504 18.31 12.7504C19.52 12.7504 20.62 12.2604 21.37 11.3904Z" fill="#CDCAD3"/>
<path d="M14.99 1.25H8.98997L8.24997 8.61C8.18997 9.29 8.28997 9.93 8.53997 10.51C9.11997 11.87 10.48 12.75 12 12.75C13.54 12.75 14.87 11.89 15.47 10.52C15.65 10.09 15.76 9.59 15.77 9.08V8.89L14.99 1.25Z" fill="#171C22"/>
<path d="M22.36 8.27L22.07 5.5C21.65 2.48 20.28 1.25 17.35 1.25H13.51L14.25 8.75C14.26 8.85 14.27 8.96 14.27 9.15C14.33 9.67 14.49 10.15 14.73 10.58C15.45 11.9 16.85 12.75 18.31 12.75C19.64 12.75 20.84 12.16 21.59 11.12C22.19 10.32 22.46 9.31 22.36 8.27Z" fill="#8C8E94"/>
<path d="M6.59002 1.25C3.65002 1.25 2.29002 2.48 1.86002 5.53L1.59002 8.28C1.49002 9.35 1.78002 10.39 2.41002 11.2C3.17002 12.19 4.34002 12.75 5.64002 12.75C7.10002 12.75 8.50002 11.9 9.21002 10.6C9.47002 10.15 9.64002 9.63 9.69002 9.09L10.47 1.26H6.59002V1.25Z" fill="#8C8E94"/>
<path d="M11.35 16.6602C10.08 16.7902 9.12 17.8702 9.12 19.1502V22.3802H14.87V19.5002C14.88 17.4102 13.65 16.4202 11.35 16.6602Z" fill="#171C22"/>
<path d="M4.125 23.2783C6.02348 23.2783 7.5625 21.7393 7.5625 19.8408C7.5625 17.9423 6.02348 16.4033 4.125 16.4033C2.22652 16.4033 0.6875 17.9423 0.6875 19.8408C0.6875 21.7393 2.22652 23.2783 4.125 23.2783Z" fill="#171C22"/>
<path d="M4.90181 19.875L4.38274 19.6928V18.5275H4.50649C4.78493 18.5275 5.01181 18.7716 5.01181 19.0706C5.01181 19.2116 5.12868 19.3284 5.26962 19.3284C5.41056 19.3284 5.52743 19.2116 5.52743 19.0706C5.52743 18.4862 5.07024 18.0119 4.50649 18.0119H4.38274V17.8125C4.38274 17.6716 4.26587 17.5547 4.12493 17.5547C3.98399 17.5547 3.86712 17.6716 3.86712 17.8125V18.0119H3.64368C3.13493 18.0119 2.71899 18.4416 2.71899 18.9675C2.71899 19.5828 3.07649 19.7787 3.34806 19.875L3.86712 20.0572V21.2191H3.74337C3.46493 21.2191 3.23806 20.975 3.23806 20.6759C3.23806 20.535 3.12118 20.4181 2.98024 20.4181C2.83931 20.4181 2.72243 20.535 2.72243 20.6759C2.72243 21.2603 3.17962 21.7347 3.74337 21.7347H3.86712V21.9375C3.86712 22.0784 3.98399 22.1953 4.12493 22.1953C4.26587 22.1953 4.38274 22.0784 4.38274 21.9375V21.7381H4.60618C5.11493 21.7381 5.53087 21.3084 5.53087 20.7825C5.52743 20.1638 5.16993 19.9678 4.90181 19.875ZM3.51993 19.3903C3.34462 19.3284 3.23806 19.27 3.23806 18.9709C3.23806 18.7269 3.42024 18.5309 3.64712 18.5309H3.87056V19.5141L3.51993 19.3903ZM4.60618 21.2225H4.38274V20.2394L4.72993 20.3597C4.90524 20.4216 5.01181 20.48 5.01181 20.7791C5.01181 21.0231 4.82962 21.2225 4.60618 21.2225Z" fill="white"/>
</g>
<defs>
<clipPath id="clip0_945_9364">
<rect width="24" height="24" fill="white"/>
</clipPath>
</defs>
</svg>
