<svg width="24" height="24" viewBox="0 0 24 24" fill="none" xmlns="http://www.w3.org/2000/svg">
<path d="M18.38 12.8398V17.7698C18.38 19.0398 17.39 20.3998 16.2 20.7998L13.01 21.8598C12.45 22.0498 11.54 22.0498 10.99 21.8598L7.8 20.7998C6.6 20.3998 5.62 19.0398 5.62 17.7698L5.63 12.8398L10.05 15.7198C11.13 16.4298 12.91 16.4298 13.99 15.7198L18.38 12.8398Z" fill="#CDCAD3"/>
<path d="M19.98 6.45957L13.99 2.52957C12.91 1.81957 11.13 1.81957 10.05 2.52957L4.03002 6.45957C2.10002 7.70957 2.10002 10.5396 4.03002 11.7996L5.63002 12.8396L10.05 15.7196C11.13 16.4296 12.91 16.4296 13.99 15.7196L18.38 12.8396L19.75 11.9396V14.9996C19.75 15.4096 20.09 15.7496 20.5 15.7496C20.91 15.7496 21.25 15.4096 21.25 14.9996V10.0796C21.65 8.78957 21.24 7.28957 19.98 6.45957Z" fill="#171C22"/>
</svg>
