<svg width="24" height="24" viewBox="0 0 24 24" fill="none" xmlns="http://www.w3.org/2000/svg">
<path d="M9.84184 18.75C9.26939 18.75 9.32143 18.5447 9.16531 18.0314L7.5 12.6416L20.25 5.25" fill="#C8DAEA"/>
<path d="M9.75 18.75C10.0943 18.75 10.291 18.5382 10.5369 18.3265L12.75 16.05L9.9959 14.25" fill="#A9C9DD"/>
<path d="M9.68908 14.8708L17.5136 20.7407C18.325 21.2743 19.0206 20.9779 19.2524 19.9106L22.4402 4.6132C22.73 3.30877 21.9185 2.71584 21.0491 3.13089L2.44413 10.4831C1.22698 10.9575 1.22698 11.7283 2.2123 12.0247L7.02294 13.5663L18.0352 6.39197C18.5569 6.0955 19.0206 6.21409 18.6728 6.62914" fill="#F6FBFE"/>
</svg>
