<svg width="53" height="44" viewBox="0 0 53 44" fill="none" xmlns="http://www.w3.org/2000/svg">
<path d="M35.5061 38.6564V41.8387L24.595 42.8543L18.1569 39.4689V42.7189L7.11029 43.6668L0.333252 40.2814V3.10954L10.7021 2.22933L12.5319 3.85433C13.2548 3.17725 14.1358 2.61301 15.175 2.16162C16.2141 1.66509 17.2758 1.37169 18.3602 1.28141C18.5409 1.28141 18.699 1.28141 18.8346 1.28141C19.0153 1.23627 19.196 1.21371 19.3767 1.21371C21.2291 1.21371 22.946 1.64252 24.5273 2.50016C26.1538 3.3578 27.3962 4.32829 28.2546 5.41162C28.8872 4.23801 29.8359 3.15468 31.101 2.16162C32.366 1.12343 33.9022 0.536621 35.7094 0.401204C35.9353 0.401204 36.1612 0.401204 36.3871 0.401204C36.6582 0.356065 36.9292 0.333496 37.2003 0.333496C39.9563 0.333496 42.5316 0.852593 44.9261 1.89079C47.3207 2.92898 49.2409 4.44113 50.6866 6.42725C52.1776 8.36822 52.923 10.738 52.923 13.5366V41.0939L41.8765 41.9741L35.5061 38.6564ZM45.4683 10.1512C45.4683 7.03662 44.6551 4.73454 43.0286 3.24496C41.4021 1.75537 39.369 1.01058 36.9292 1.01058C36.7485 1.01058 36.5678 1.03315 36.3871 1.07829C36.2064 1.07829 36.003 1.07829 35.7771 1.07829C34.3314 1.21371 33.0437 1.66509 31.9142 2.43246C30.8299 3.19982 29.9489 4.12516 29.2712 5.2085C28.5935 6.29183 28.1191 7.39773 27.848 8.52621L27.6447 8.4585C27.2833 6.8335 26.4248 5.34391 25.0694 3.98975C23.7592 2.59044 21.8842 1.89079 19.4445 1.89079C19.2638 1.89079 19.083 1.91336 18.9023 1.9585C18.7668 1.9585 18.6087 1.9585 18.4279 1.9585C16.2141 2.13905 14.3843 2.99669 12.9385 4.53141C11.4928 6.06614 10.5892 7.80398 10.2277 9.74495L10.0244 9.81266V2.97412L1.01096 3.71891V39.5366L10.7021 38.7918V16.6512C10.928 15.5227 11.3798 14.5071 12.0575 13.6043C12.7804 12.7016 13.7518 12.205 14.9716 12.1147H15.446C16.3948 12.1147 17.1403 12.4533 17.6825 13.1304C18.2246 13.7623 18.4957 14.8231 18.4957 16.3127V38.7918L28.0513 37.9116V15.771C28.2772 14.6877 28.729 13.6946 29.4067 12.7918C30.1296 11.8891 31.0784 11.3925 32.2531 11.3022H32.7275C33.7214 11.3022 34.4669 11.6182 34.9639 12.2502C35.5061 12.8821 35.7771 13.9429 35.7771 15.4325V37.9116L45.4683 37.0991V10.1512Z" fill="#232B34"/>
</svg>
